<?xml version="1.0" standalone="no"?>
<!DOCTYPE svg PUBLIC "-//W3C//DTD SVG 1.1//EN" "http://www.w3.org/Graphics/SVG/1.1/DTD/svg11.dtd" >
<!--
2013-9-30: Created.
-->
<svg>
<metadata>
Created by iconfont
</metadata>
<defs>

<font id="iconfont" horiz-adv-x="1024" >
  <font-face
    font-family="iconfont"
    font-weight="500"
    font-stretch="normal"
    units-per-em="1024"
    ascent="896"
    descent="-128"
  />
    <missing-glyph />
    
    <glyph glyph-name="shangpinguanli" unicode="&#58887;" d="M0 896h1024v-1024H0V896z m731.428571-219.428571a219.428571 219.428571 0 1 0-438.857142 0V749.714286H146.285714v-73.142857a365.714286 365.714286 0 0 1 731.428572 0V749.714286h-146.285715v-73.142857z"  horiz-adv-x="1024" />

    
    <glyph glyph-name="yonghuguanli" unicode="&#58914;" d="M1024 64v64h-56.96a166.4 166.4 0 0 1-28.8 67.84l39.68 40.96-38.4 39.04-40.32-40.96A160.64 160.64 0 0 1 832 262.4V320h-64v-56.96a166.4 166.4 0 0 1-67.84-28.8l-40.96 39.68-39.04-38.4 40.96-40.32A160.64 160.64 0 0 1 633.6 128H576v-64h56.96a166.4 166.4 0 0 1 28.8-67.84l-39.68-40.96 38.4-39.04 40.32 40.96A160.64 160.64 0 0 1 768-70.4v-57.6h64v56.96a166.4 166.4 0 0 1 67.84 28.8l40.96-39.68 39.04 38.4-40.96 40.32A160.64 160.64 0 0 1 966.4 64z m-224-51.84A83.84 83.84 0 1 0 883.84 96 83.84 83.84 0 0 0 800 12.16zM512 896a239.36 239.36 0 1 1 239.36-239.36A239.36 239.36 0 0 1 512 896zM0-94.72V-128h592.64a352 352 0 0 0 80 519.04A512 512 0 0 1 0-94.72z"  horiz-adv-x="1024" />

    
    <glyph glyph-name="dingdanguanli" unicode="&#58910;" d="M198.741333 128.426667H109.525333c-24.661333 0-44.672 20.053333-44.672 44.672V850.218667C64.853333 874.922667 84.906667 894.976 109.525333 894.976h549.162667c24.618667 0 44.672-20.053333 44.672-44.672v-89.216H243.413333c-24.661333 0-44.672-20.053333-44.672-44.672v-587.946667z m145.578667-225.493334h549.077333c24.618667 0 44.629333 20.053333 44.629334 44.672V624.725333c0 24.618667-20.053333 44.672-44.629334 44.672H344.32c-24.618667 0-44.672-20.053333-44.672-44.672v-677.12c0-24.746667 19.925333-44.672 44.672-44.672z"  horiz-adv-x="1024" />

    
    <glyph glyph-name="yonghuguanli1" unicode="&#58885;" d="M355.328 574.464m-151.552 0a151.552 151.552 0 1 1 303.104 0 151.552 151.552 0 1 1-303.104 0ZM705.536 574.464m-151.552 0a151.552 151.552 0 1 1 303.104 0 151.552 151.552 0 1 1-303.104 0ZM539.648 302.08c-53.248 18.432-116.736 27.648-184.32 27.648C161.792 329.728 3.072 260.096 3.072 71.68v-37.888h704.512v37.888c1.024 122.88-66.56 195.584-167.936 230.4zM645.12 329.728c-24.576 0-38.912-1.024-62.464-3.072C694.272 308.224 768 212.992 768 97.28c0-21.504 2.048-43.008-3.072-62.464H1024v37.888c0 187.392-169.984 257.024-378.88 257.024z"  horiz-adv-x="1024" />

    
    <glyph glyph-name="quanxianguanli1" unicode="&#58968;" d="M870.4 204.8v512H153.6v-512h307.2v-102.4H358.4v-51.2h307.2v51.2h-102.4v102.4z m-512 358.4h307.2v-51.2H358.4z m0-204.8v51.2h307.2v-51.2z"  horiz-adv-x="1024" />

    
    <glyph glyph-name="shujutongji" unicode="&#58886;" d="M128-24V768h792v-792H128z m301.12 337.216l132.032-105.216 185.6 208.32-49.472 43.328-144.384-160.896-132.032 105.216-185.6-208.32 49.472-43.328 144.384 160.896z m408.32 223.808a50.688 50.688 0 0 1-14.912 34.56 46.912 46.912 0 0 1-34.56 13.888 46.912 46.912 0 0 1-34.56-13.952 46.912 46.912 0 0 1-13.888-34.56c0-13.696 4.672-25.216 13.952-34.56a46.912 46.912 0 0 1 34.56-13.888 46.912 46.912 0 0 1 34.56 13.952 50.688 50.688 0 0 1 14.912 34.56z"  horiz-adv-x="1024" />

    
    <glyph glyph-name="bianjixiangmu" unicode="&#58888;" d="M213.312 85.312h60.352l397.44 397.44-60.352 60.288-397.44-397.376v-60.352zM896 0H128v181.056l573.248 573.184c16.64 16.64 43.648 16.64 60.288 0L882.24 633.6c16.64-16.64 16.64-43.648 0-60.288l-487.872-487.936H896V0z m-224.96 603.392l60.352-60.352 60.352 60.352-60.352 60.352-60.352-60.352z"  horiz-adv-x="1024" />

    
    <glyph glyph-name="chucun" unicode="&#58889;" d="M213.312 298.688h597.376V725.312H213.312v-426.624z m0-85.376v-170.624h597.376v170.624H213.312z m-42.624 597.376h682.624c23.616 0 42.688-19.136 42.688-42.688v-768a42.688 42.688 0 0 0-42.688-42.688H170.688A42.688 42.688 0 0 0 128 0V768c0 23.552 19.072 42.688 42.688 42.688z m469.312-640h85.312v-85.376H640v85.376z"  horiz-adv-x="1024" />

    
    <glyph glyph-name="caozuorizhi" unicode="&#58890;" d="M725.312 810.688v-85.376h128.32c23.36 0 42.368-18.944 42.368-42.368v-683.264a42.368 42.368 0 0 0-42.368-42.368H170.368A42.368 42.368 0 0 0 128-0.32V682.944c0 23.424 19.008 42.368 42.368 42.368h128.32V810.688h426.624zM298.688 640H213.312v-597.312h597.376V640h-85.376v-85.312H298.688V640zM384 213.312V128H298.688v85.312H384z m0 128V256H298.688V341.312H384z m0 128V384H298.688V469.312H384z m256 256H384V640h256V725.312z"  horiz-adv-x="1024" />

    
    <glyph glyph-name="sousuo" unicode="&#58891;" d="M769.28 187.008l182.784-182.72-60.352-60.352-182.72 182.72a384.128 384.128 0 0 0-623.68 299.968c0 212.032 172.032 384 384 384a384.128 384.128 0 0 0 300.032-623.616z m-85.568 31.68a298.56 298.56 0 0 1-214.4 506.688 298.56 298.56 0 0 1-298.624-298.688 298.56 298.56 0 0 1 506.624-214.4l6.4 6.4z"  horiz-adv-x="1024" />

    
    <glyph glyph-name="zuzhiyuquanxian" unicode="&#58893;" d="M640 768c23.552 0 42.688-19.136 42.688-42.688v-170.624A42.688 42.688 0 0 0 640 512H554.688v-85.312h170.624c23.552 0 42.688-19.136 42.688-42.688v-128h85.312c23.552 0 42.688-19.136 42.688-42.688v-170.624a42.688 42.688 0 0 0-42.688-42.688h-256a42.688 42.688 0 0 0-42.624 42.688v170.624c0 23.552 19.072 42.688 42.624 42.688h85.376V341.312H341.312V256h85.376c23.552 0 42.624-19.136 42.624-42.688v-170.624a42.688 42.688 0 0 0-42.624-42.688h-256A42.688 42.688 0 0 0 128 42.688v170.624c0 23.552 19.136 42.688 42.688 42.688H256V384c0 23.552 19.136 42.688 42.688 42.688h170.624V512H384a42.688 42.688 0 0 0-42.688 42.688V725.312C341.312 748.864 360.448 768 384 768h256z m-256-597.312H213.312v-85.376H384v85.376z m426.688 0H640v-85.376h170.688v85.376z m-213.376 512H426.688v-85.376h170.624V682.688z"  horiz-adv-x="1024" />

    
    <glyph glyph-name="zonglanxiushi" unicode="&#58894;" d="M288 789.312A181.312 181.312 0 0 0 469.312 608v-181.312H288a181.312 181.312 0 1 0 0 362.624z m0-448h181.312V160A181.312 181.312 0 1 0 288 341.312z m448 448a181.312 181.312 0 1 0 0-362.624H554.688V608A181.312 181.312 0 0 0 736 789.312z m-181.312-448H736A181.312 181.312 0 1 0 554.688 160V341.312z"  horiz-adv-x="1024" />

    
    <glyph glyph-name="zonglan" unicode="&#58895;" d="M896 42.688a42.688 42.688 0 0 0-42.688-42.688H170.688A42.688 42.688 0 0 0 128 42.688V491.072c0 13.184 6.08 25.6 16.448 33.728l341.376 265.472a42.688 42.688 0 0 0 52.352 0L879.552 524.8c10.368-8.064 16.448-20.48 16.448-33.728v-448.384z m-85.312 42.624V470.272L512 702.592l-298.688-232.32v-384.96h597.376z m-512 170.688h426.624v-85.312H298.688V256z"  horiz-adv-x="1024" />

    
    <glyph glyph-name="yongliang" unicode="&#58896;" d="M469.312 872.832a490.688 490.688 0 0 0 531.52-531.52h-64.256A426.752 426.752 0 0 0 85.376 384c0 221.248 168.32 403.2 384 424.512V872.96v-0.064z m0-531.52V722.688A341.376 341.376 0 0 1 512 42.688c172.032 0 317.184 128 338.688 298.624H469.312zM915.2 426.688a405.44 405.44 0 0 1-360.448 360.448v-360.448h360.448z"  horiz-adv-x="1024" />

    
    <glyph glyph-name="jingshi" unicode="&#58897;" d="M512-42.688A426.688 426.688 0 1 0 512 810.624a426.688 426.688 0 0 0 0-853.312z m-42.688 469.376v-256h85.376v256H469.312z m0 170.624V512h85.376V597.312H469.312z"  horiz-adv-x="1024" />

    
    <glyph glyph-name="gerenziliao" unicode="&#58898;" d="M469.312 277.312V192a256 256 0 0 1-256-256H128a341.312 341.312 0 0 0 341.312 341.312z m0 42.688c-141.44 0-256 114.56-256 256s114.56 256 256 256 256-114.56 256-256-114.56-256-256-256z m0 85.312a170.624 170.624 0 1 1 0 341.376 170.624 170.624 0 1 1 0-341.376z m110.72-333.312a149.76 149.76 0 0 0 0 69.248l-42.304 24.448 42.688 73.92 42.304-24.448a149.12 149.12 0 0 0 59.968 34.624v48.896H768v-48.896c22.72-6.72 43.2-18.752 59.968-34.624l42.304 24.448 42.688-73.92-42.368-24.448a149.76 149.76 0 0 0 0-69.184l42.368-24.448-42.688-73.92-42.304 24.448a149.12 149.12 0 0 0-59.968-34.624v-48.832h-85.312v48.832a149.12 149.12 0 0 0-59.968 34.624l-42.304-24.448-42.688 73.92 42.304 24.384z m145.28-29.312a64 64 0 1 1 0 128 64 64 0 0 1 0-128z"  horiz-adv-x="1024" />

    
    <glyph glyph-name="riqi" unicode="&#58899;" d="M725.312 768H896c23.552 0 42.688-19.072 42.688-42.688v-682.624A42.688 42.688 0 0 0 896 0H128a42.688 42.688 0 0 0-42.688 42.688V725.312C85.312 748.928 104.448 768 128 768h170.688V853.312H384V768h256V853.312h85.312V768zM640 682.688H384v-85.376H298.688V682.688h-128V512h682.624V682.688h-128v-85.376H640V682.688z m213.312-256H170.688v-341.376h682.624V426.688zM256 298.688h85.312v-85.376H256V298.688z m170.688 0H768v-85.376H426.688V298.688z"  horiz-adv-x="1024" />

    
    <glyph glyph-name="fuzhi" unicode="&#58900;" d="M298.688 640V768c0 23.552 19.072 42.688 42.624 42.688h512c23.616 0 42.688-19.136 42.688-42.688v-597.312a42.688 42.688 0 0 0-42.688-42.688h-128v-128c0-23.552-19.2-42.688-42.944-42.688h-511.36A42.688 42.688 0 0 0 128 0l0.128 597.312c0 23.552 19.2 42.688 42.944 42.688h127.616zM213.44 554.688l-0.128-512H640v512H213.44zM384 640h341.312v-426.688h85.376v512H384V640z"  horiz-adv-x="1024" />

    
    <glyph glyph-name="zengjia" unicode="&#58901;" d="M469.312 426.688V597.312h85.376v-170.624h170.624v-85.376H554.688v-170.624H469.312V341.312H298.688V426.688h170.624zM512-42.688A426.688 426.688 0 1 0 512 810.624a426.688 426.688 0 0 0 0-853.312z m0 85.376A341.312 341.312 0 1 1 512 725.312a341.312 341.312 0 0 1 0-682.624z"  horiz-adv-x="1024" />

    
    <glyph glyph-name="jisuan" unicode="&#58902;" d="M128 768.32c0 23.424 19.008 42.368 42.368 42.368h683.264c23.296-0.192 42.24-19.008 42.368-42.368v-768.64a42.368 42.368 0 0 0-42.368-42.368H170.368A42.688 42.688 0 0 0 128-0.32V768.32z m682.688-341.632V725.312H213.312v-298.624h597.376z m0-85.376H213.312v-298.624h597.376V341.312zM384 640h256v-85.312H384V640z m0-384h256v-85.312H384V256z"  horiz-adv-x="1024" />

    
    <glyph glyph-name="genggaipeizhi" unicode="&#58903;" d="M650.368 703.36L362.88 415.936l-30.144-90.496-44.416-44.416 120.704-120.704 44.352 44.416 90.56 30.144 287.424 287.488-180.992 180.992z m271.552-150.848c16.64-16.64 16.64-43.648 0-60.288l-331.904-331.904-90.496-30.208-60.352-60.288a42.688 42.688 0 0 0-60.352 0l-180.992 180.992a42.688 42.688 0 0 0 0 60.352l60.288 60.352 30.208 90.496L620.16 793.92c16.64 16.64 43.648 16.64 60.288 0l241.408-241.408z m-271.552 30.208l60.352-60.352-211.2-211.2-60.352 60.352 211.2 211.2zM182.72 175.36l120.704-120.704-60.352-60.352-181.056 60.352 120.704 120.704z"  horiz-adv-x="1024" />

    
    <glyph glyph-name="shouqi" unicode="&#58904;" d="M256 469.312v-170.624h85.312V469.312H256zM768 768h-85.312v-768H768V768zM469.312 640v-512h85.376V640H469.312z"  horiz-adv-x="1024" />

    
    <glyph glyph-name="huancun" unicode="&#58905;" d="M341.312 725.312v-247.168c0-28.16-11.2-55.296-31.104-75.264L256 348.48v-305.792h512V725.312H341.312z m-42.624 85.376h512c23.552 0 42.624-19.136 42.624-42.688v-768a42.688 42.688 0 0 0-42.624-42.688H213.312A42.688 42.688 0 0 0 170.688 0V366.08c0 11.264 4.48 22.144 12.416 30.08l66.688 66.944A21.312 21.312 0 0 1 256 478.144V768c0 23.552 19.072 42.688 42.688 42.688z m341.312-128h85.312V512H640V682.688z m-128 0h85.312V512H512V682.688z m-128 0h85.312V512H384V682.688z"  horiz-adv-x="1024" />

    
    <glyph glyph-name="wangluo" unicode="&#58906;" d="M512-42.688A426.688 426.688 0 1 0 512 810.624a426.688 426.688 0 0 0 0-853.312zM414.272 56.96a763.712 763.712 0 0 0-71.808 284.416H173.312a341.696 341.696 0 0 1 240.96-284.416z m13.696 284.416A679.04 679.04 0 0 1 512 53.248a678.592 678.592 0 0 1 84.032 288.064H427.968z m422.72 0h-169.152a763.712 763.712 0 0 0-71.808-284.416 341.696 341.696 0 0 1 240.96 284.416zM173.312 426.688h169.152c5.376 98.56 29.76 195.2 71.808 284.416a341.696 341.696 0 0 1-240.96-284.416z m254.72 0h168A678.592 678.592 0 0 1 512 714.752a678.592 678.592 0 0 1-84.032-288.064zM609.664 711.04a763.712 763.712 0 0 0 71.808-284.416h169.152A341.696 341.696 0 0 1 609.728 711.04z"  horiz-adv-x="1024" />

    
    <glyph glyph-name="liuchengguanli" unicode="&#58907;" d="M597.312 768c23.552 0 42.688-19.136 42.688-42.688V512h213.312c23.552 0 42.688-19.136 42.688-42.688v-426.624a42.688 42.688 0 0 0-42.688-42.688H426.688A42.688 42.688 0 0 0 384 42.688V256H170.688A42.688 42.688 0 0 0 128 298.688V725.312C128 748.864 147.136 768 170.688 768h426.624z m-42.624-85.312H213.312v-341.376h341.376V682.688z"  horiz-adv-x="1024" />

    
    <glyph glyph-name="gongdan" unicode="&#58908;" d="M896 554.642286v-554.349715a42.642286 42.642286 0 0 0-42.422857-42.934857H170.422857a42.422857 42.422857 0 0 0-42.422857 42.276572V768.365714c0 22.893714 19.163429 42.276571 42.715429 42.276572h469.138285l256.146286-256z m-85.357714-42.642286H597.357714V725.357714h-384v-682.715428h597.284572V512zM341.357714 597.357714h128V512h-128V597.357714z m0-170.715428h341.284572v-85.284572H341.357714V426.642286z m0-170.642286h341.284572v-85.357714H341.357714V256z"  horiz-adv-x="1024" />

    
    <glyph glyph-name="tongbufuwu" unicode="&#58909;" d="M170.688 682.688v-597.376h682.624V682.688H170.688zM128 768h768c23.552 0 42.688-19.072 42.688-42.688v-682.624A42.688 42.688 0 0 0 896 0H128a42.688 42.688 0 0 0-42.688 42.688V725.312C85.312 748.928 104.448 768 128 768z m512-170.688l149.312-128-149.312-128V426.688H469.312V512H640V597.312z m-256-426.624l-149.312 128 149.312 128v-85.376h170.688V256H384v-85.312z"  horiz-adv-x="1024" />

    
    <glyph glyph-name="gouwuche" unicode="&#58931;" d="M313.6 230.4c6.4 0 12.8 0 12.8 6.4l524.8-6.4c25.6 0 51.2 19.2 57.6 44.8l108.8 448c6.4 19.2 0 38.4-12.8 51.2-12.8 12.8-32 25.6-51.2 25.6L211.2 800 192 896 44.8 896C25.6 896 12.8 883.2 12.8 864S25.6 832 44.8 832l96 0 128-550.4c-38.4-19.2-64-57.6-64-102.4 0-38.4 25.6-76.8 57.6-96-32-19.2-57.6-57.6-57.6-96 0-64 51.2-115.2 115.2-115.2s115.2 51.2 115.2 115.2c0 25.6-12.8 51.2-25.6 70.4l396.8 0c-12.8-19.2-25.6-44.8-25.6-70.4 0-64 51.2-115.2 115.2-115.2s115.2 51.2 115.2 115.2c0 51.2-38.4 96-83.2 108.8 0 12.8-12.8 25.6-32 25.6L339.2 121.6C332.8 128 326.4 128 313.6 128c-25.6 0-51.2 19.2-51.2 51.2C268.8 204.8 288 230.4 313.6 230.4zM857.6 288 339.2 281.6c0 0-6.4 6.4-6.4 6.4L262.4 576l659.2 0L857.6 288zM960 736 934.4 640 249.6 640 224 736 960 736zM313.6-64c-25.6 0-51.2 19.2-51.2 51.2s19.2 51.2 51.2 51.2 51.2-19.2 51.2-51.2S339.2-64 313.6-64zM934.4-12.8c0-25.6-19.2-51.2-51.2-51.2-25.6 0-51.2 19.2-51.2 51.2s19.2 51.2 51.2 51.2C908.8 32 934.4 12.8 934.4-12.8z"  horiz-adv-x="1024" />

    
    <glyph glyph-name="icon-mima" unicode="&#58892;" d="M817.079812 505.95047H756.063133v81.339539c0 134.512576-109.475344 243.931638-244.062621 243.931639S267.93482 721.802586 267.93482 587.292056v-81.341586h-61.015655c-33.69952 0-61.016679-27.301809-61.016679-60.98291v-447.206298c0-33.679054 27.318182-60.98291 61.016679-60.98291h610.160647c33.69952 0 61.016679 27.302833 61.016679 60.98291V444.968583c0 33.680077-27.318182 60.981886-61.016679 60.981887z m-488.129336 81.341586c0 100.882642 82.109066 182.948729 183.049012 182.948729 100.939947 0 183.049013-82.066087 183.049013-182.948729v-81.341586h-366.098025v81.341586z m488.129336-589.530794H206.919165V444.968583h610.160647v-447.207321zM512.000512 109.553371c16.84362 0 30.507828 13.657045 30.507827 30.491455V302.664553c0 16.832364-13.664208 30.491455-30.507827 30.491455s-30.507828-13.659091-30.507828-30.491455v-162.620751c-0.001023-16.83441 13.664208-30.490431 30.507828-30.490431z"  horiz-adv-x="1024" />

    
    <glyph glyph-name="yonghu" unicode="&#58933;" d="M490.666667 440.888889A177.777778 177.777778 0 1 1 312.888889 618.666667 178.346667 178.346667 0 0 1 490.666667 440.888889z m-154.737778-17.635556A249.173333 249.173333 0 1 0 739.555556 618.666667a252.586667 252.586667 0 0 0-94.151112-195.413334 426.666667 426.666667 0 0 0 307.484445-409.031111 106.951111 106.951111 0 0 0-106.666667-106.666666h-711.111111A106.951111 106.951111 0 0 0 28.444444 14.222222a426.666667 426.666667 0 0 0 307.484445 409.031111z m510.293333-444.586666c19.626667 0 35.555556 15.928889 35.555556 35.555555a356.408889 356.408889 0 0 1-355.555556 355.555556H455.111111a356.408889 356.408889 0 0 1-355.555555-355.555556 35.555556 35.555556 0 0 1 35.555555-35.555555h711.111111z"  horiz-adv-x="1024" />

    


  </font>
</defs>
</svg>
